<mxfile host="app.diagrams.net" modified="2024-02-17T09:35:19.966Z" agent="Mozilla/5.0 (Windows NT 10.0; Win64; x64) AppleWebKit/537.36 (KHTML, like Gecko) Chrome/121.0.0.0 Safari/537.36 Edg/121.0.0.0" etag="XcCSQfl1j0ibxXjlbQpT" version="23.1.5" type="github">
  <diagram name="第 1 页" id="0RrbG-zLoAFsq46aj-qX">
    <mxGraphModel dx="2013" dy="1478" grid="1" gridSize="10" guides="1" tooltips="1" connect="1" arrows="1" fold="1" page="1" pageScale="1" pageWidth="1169" pageHeight="826" math="0" shadow="0">
      <root>
        <mxCell id="0" />
        <mxCell id="1" parent="0" />
        <mxCell id="LjYqNugDr9bcPcMIpJbj-135" value="" style="group" vertex="1" connectable="0" parent="1">
          <mxGeometry x="206" y="230" width="819" height="260" as="geometry" />
        </mxCell>
        <mxCell id="LjYqNugDr9bcPcMIpJbj-66" value="" style="group;fontSize=7;" vertex="1" connectable="0" parent="LjYqNugDr9bcPcMIpJbj-135">
          <mxGeometry x="284" width="250" height="260" as="geometry" />
        </mxCell>
        <mxCell id="LjYqNugDr9bcPcMIpJbj-67" value="" style="rounded=1;whiteSpace=wrap;html=1;fillColor=#fff2cc;strokeColor=#d6b656;" vertex="1" parent="LjYqNugDr9bcPcMIpJbj-66">
          <mxGeometry y="60" width="250" height="160" as="geometry" />
        </mxCell>
        <mxCell id="LjYqNugDr9bcPcMIpJbj-68" value="×" style="ellipse;whiteSpace=wrap;html=1;aspect=fixed;fillColor=#dae8fc;strokeColor=#6c8ebf;" vertex="1" parent="LjYqNugDr9bcPcMIpJbj-66">
          <mxGeometry x="117.5" y="125" width="15" height="15" as="geometry" />
        </mxCell>
        <mxCell id="LjYqNugDr9bcPcMIpJbj-69" style="edgeStyle=orthogonalEdgeStyle;rounded=0;orthogonalLoop=1;jettySize=auto;html=1;exitX=1;exitY=0.5;exitDx=0;exitDy=0;endArrow=none;endFill=0;" edge="1" parent="LjYqNugDr9bcPcMIpJbj-66" source="LjYqNugDr9bcPcMIpJbj-70">
          <mxGeometry relative="1" as="geometry">
            <mxPoint x="210" y="80.17647058823536" as="targetPoint" />
          </mxGeometry>
        </mxCell>
        <mxCell id="LjYqNugDr9bcPcMIpJbj-70" value="+" style="ellipse;whiteSpace=wrap;html=1;aspect=fixed;fillColor=#dae8fc;strokeColor=#6c8ebf;" vertex="1" parent="LjYqNugDr9bcPcMIpJbj-66">
          <mxGeometry x="117.5" y="72.5" width="15" height="15" as="geometry" />
        </mxCell>
        <mxCell id="LjYqNugDr9bcPcMIpJbj-71" style="edgeStyle=orthogonalEdgeStyle;rounded=0;orthogonalLoop=1;jettySize=auto;html=1;exitX=0.5;exitY=0;exitDx=0;exitDy=0;entryX=0.5;entryY=1;entryDx=0;entryDy=0;" edge="1" parent="LjYqNugDr9bcPcMIpJbj-66" source="LjYqNugDr9bcPcMIpJbj-68" target="LjYqNugDr9bcPcMIpJbj-70">
          <mxGeometry relative="1" as="geometry" />
        </mxCell>
        <mxCell id="LjYqNugDr9bcPcMIpJbj-72" style="edgeStyle=orthogonalEdgeStyle;rounded=0;orthogonalLoop=1;jettySize=auto;html=1;exitX=1;exitY=0.5;exitDx=0;exitDy=0;entryX=0;entryY=0.5;entryDx=0;entryDy=0;endArrow=none;endFill=0;" edge="1" parent="LjYqNugDr9bcPcMIpJbj-66" source="LjYqNugDr9bcPcMIpJbj-73" target="LjYqNugDr9bcPcMIpJbj-70">
          <mxGeometry relative="1" as="geometry" />
        </mxCell>
        <mxCell id="LjYqNugDr9bcPcMIpJbj-96" style="edgeStyle=orthogonalEdgeStyle;rounded=0;orthogonalLoop=1;jettySize=auto;html=1;exitX=0;exitY=0.5;exitDx=0;exitDy=0;endArrow=none;endFill=0;" edge="1" parent="LjYqNugDr9bcPcMIpJbj-66" source="LjYqNugDr9bcPcMIpJbj-73">
          <mxGeometry relative="1" as="geometry">
            <mxPoint x="-20" y="79.81818181818176" as="targetPoint" />
          </mxGeometry>
        </mxCell>
        <mxCell id="LjYqNugDr9bcPcMIpJbj-73" value="×" style="ellipse;whiteSpace=wrap;html=1;aspect=fixed;fillColor=#dae8fc;strokeColor=#6c8ebf;" vertex="1" parent="LjYqNugDr9bcPcMIpJbj-66">
          <mxGeometry x="30" y="72.5" width="15" height="15" as="geometry" />
        </mxCell>
        <mxCell id="LjYqNugDr9bcPcMIpJbj-74" style="edgeStyle=orthogonalEdgeStyle;rounded=1;orthogonalLoop=1;jettySize=auto;html=1;exitX=0.5;exitY=1;exitDx=0;exitDy=0;curved=0;" edge="1" parent="LjYqNugDr9bcPcMIpJbj-66" source="LjYqNugDr9bcPcMIpJbj-75">
          <mxGeometry relative="1" as="geometry">
            <mxPoint x="270" y="200" as="targetPoint" />
            <Array as="points">
              <mxPoint x="205" y="200" />
            </Array>
          </mxGeometry>
        </mxCell>
        <mxCell id="LjYqNugDr9bcPcMIpJbj-75" value="×" style="ellipse;whiteSpace=wrap;html=1;aspect=fixed;fillColor=#dae8fc;strokeColor=#6c8ebf;" vertex="1" parent="LjYqNugDr9bcPcMIpJbj-66">
          <mxGeometry x="197.5" y="125" width="15" height="15" as="geometry" />
        </mxCell>
        <mxCell id="LjYqNugDr9bcPcMIpJbj-76" style="edgeStyle=orthogonalEdgeStyle;rounded=0;orthogonalLoop=1;jettySize=auto;html=1;exitX=0.5;exitY=0;exitDx=0;exitDy=0;" edge="1" parent="LjYqNugDr9bcPcMIpJbj-66" source="LjYqNugDr9bcPcMIpJbj-77">
          <mxGeometry relative="1" as="geometry">
            <mxPoint x="270" y="80" as="targetPoint" />
            <Array as="points">
              <mxPoint x="205" y="80" />
            </Array>
          </mxGeometry>
        </mxCell>
        <mxCell id="LjYqNugDr9bcPcMIpJbj-77" value="tanh" style="ellipse;whiteSpace=wrap;html=1;fontSize=10;fillColor=#dae8fc;strokeColor=#6c8ebf;" vertex="1" parent="LjYqNugDr9bcPcMIpJbj-66">
          <mxGeometry x="190" y="102.5" width="30" height="15" as="geometry" />
        </mxCell>
        <mxCell id="LjYqNugDr9bcPcMIpJbj-78" style="edgeStyle=orthogonalEdgeStyle;rounded=0;orthogonalLoop=1;jettySize=auto;html=1;exitX=0.5;exitY=0;exitDx=0;exitDy=0;entryX=0.5;entryY=1;entryDx=0;entryDy=0;endArrow=none;endFill=0;" edge="1" parent="LjYqNugDr9bcPcMIpJbj-66" source="LjYqNugDr9bcPcMIpJbj-75" target="LjYqNugDr9bcPcMIpJbj-77">
          <mxGeometry relative="1" as="geometry" />
        </mxCell>
        <mxCell id="LjYqNugDr9bcPcMIpJbj-79" style="edgeStyle=orthogonalEdgeStyle;rounded=0;orthogonalLoop=1;jettySize=auto;html=1;exitX=0.5;exitY=0;exitDx=0;exitDy=0;entryX=0.5;entryY=1;entryDx=0;entryDy=0;" edge="1" parent="LjYqNugDr9bcPcMIpJbj-66" source="LjYqNugDr9bcPcMIpJbj-80" target="LjYqNugDr9bcPcMIpJbj-73">
          <mxGeometry relative="1" as="geometry" />
        </mxCell>
        <mxCell id="LjYqNugDr9bcPcMIpJbj-80" value="σ" style="rounded=0;whiteSpace=wrap;html=1;fontSize=10;fillColor=#ffe6cc;strokeColor=#d79b00;" vertex="1" parent="LjYqNugDr9bcPcMIpJbj-66">
          <mxGeometry x="22.5" y="170" width="30" height="10" as="geometry" />
        </mxCell>
        <mxCell id="LjYqNugDr9bcPcMIpJbj-81" style="edgeStyle=orthogonalEdgeStyle;rounded=0;orthogonalLoop=1;jettySize=auto;html=1;exitX=0.5;exitY=0;exitDx=0;exitDy=0;entryX=0.5;entryY=1;entryDx=0;entryDy=0;" edge="1" parent="LjYqNugDr9bcPcMIpJbj-66" source="LjYqNugDr9bcPcMIpJbj-84" target="LjYqNugDr9bcPcMIpJbj-68">
          <mxGeometry relative="1" as="geometry" />
        </mxCell>
        <mxCell id="LjYqNugDr9bcPcMIpJbj-82" style="edgeStyle=orthogonalEdgeStyle;rounded=0;orthogonalLoop=1;jettySize=auto;html=1;exitX=0.5;exitY=1;exitDx=0;exitDy=0;endArrow=none;endFill=0;" edge="1" parent="LjYqNugDr9bcPcMIpJbj-66" source="LjYqNugDr9bcPcMIpJbj-84">
          <mxGeometry relative="1" as="geometry">
            <mxPoint x="125.23529411764707" y="200" as="targetPoint" />
          </mxGeometry>
        </mxCell>
        <mxCell id="LjYqNugDr9bcPcMIpJbj-83" style="edgeStyle=orthogonalEdgeStyle;rounded=0;orthogonalLoop=1;jettySize=auto;html=1;exitX=0.5;exitY=1;exitDx=0;exitDy=0;endArrow=none;endFill=0;" edge="1" parent="LjYqNugDr9bcPcMIpJbj-66" source="LjYqNugDr9bcPcMIpJbj-84">
          <mxGeometry relative="1" as="geometry">
            <mxPoint x="-10" y="200" as="targetPoint" />
            <Array as="points">
              <mxPoint x="125" y="200" />
            </Array>
          </mxGeometry>
        </mxCell>
        <mxCell id="LjYqNugDr9bcPcMIpJbj-84" value="tanh" style="rounded=0;whiteSpace=wrap;html=1;fontSize=9;fillColor=#ffe6cc;strokeColor=#d79b00;" vertex="1" parent="LjYqNugDr9bcPcMIpJbj-66">
          <mxGeometry x="110" y="170" width="30" height="10" as="geometry" />
        </mxCell>
        <mxCell id="LjYqNugDr9bcPcMIpJbj-85" style="edgeStyle=orthogonalEdgeStyle;rounded=1;orthogonalLoop=1;jettySize=auto;html=1;exitX=0.5;exitY=0;exitDx=0;exitDy=0;entryX=0;entryY=0.5;entryDx=0;entryDy=0;curved=0;" edge="1" parent="LjYqNugDr9bcPcMIpJbj-66" source="LjYqNugDr9bcPcMIpJbj-87" target="LjYqNugDr9bcPcMIpJbj-68">
          <mxGeometry relative="1" as="geometry" />
        </mxCell>
        <mxCell id="LjYqNugDr9bcPcMIpJbj-86" style="edgeStyle=orthogonalEdgeStyle;rounded=0;orthogonalLoop=1;jettySize=auto;html=1;exitX=0.5;exitY=1;exitDx=0;exitDy=0;endArrow=none;endFill=0;" edge="1" parent="LjYqNugDr9bcPcMIpJbj-66" source="LjYqNugDr9bcPcMIpJbj-87">
          <mxGeometry relative="1" as="geometry">
            <mxPoint x="85.23529411764707" y="200" as="targetPoint" />
          </mxGeometry>
        </mxCell>
        <mxCell id="LjYqNugDr9bcPcMIpJbj-87" value="σ" style="rounded=0;whiteSpace=wrap;html=1;fontSize=10;fillColor=#ffe6cc;strokeColor=#d79b00;" vertex="1" parent="LjYqNugDr9bcPcMIpJbj-66">
          <mxGeometry x="70" y="170" width="30" height="10" as="geometry" />
        </mxCell>
        <mxCell id="LjYqNugDr9bcPcMIpJbj-88" style="edgeStyle=orthogonalEdgeStyle;rounded=1;orthogonalLoop=1;jettySize=auto;html=1;exitX=0.5;exitY=0;exitDx=0;exitDy=0;entryX=0;entryY=0.5;entryDx=0;entryDy=0;curved=0;" edge="1" parent="LjYqNugDr9bcPcMIpJbj-66" source="LjYqNugDr9bcPcMIpJbj-90" target="LjYqNugDr9bcPcMIpJbj-75">
          <mxGeometry relative="1" as="geometry" />
        </mxCell>
        <mxCell id="LjYqNugDr9bcPcMIpJbj-89" style="edgeStyle=orthogonalEdgeStyle;rounded=1;orthogonalLoop=1;jettySize=auto;html=1;exitX=0.5;exitY=1;exitDx=0;exitDy=0;curved=0;endArrow=none;endFill=0;" edge="1" parent="LjYqNugDr9bcPcMIpJbj-66" source="LjYqNugDr9bcPcMIpJbj-90">
          <mxGeometry relative="1" as="geometry">
            <mxPoint x="90" y="200" as="targetPoint" />
            <Array as="points">
              <mxPoint x="165" y="200" />
            </Array>
          </mxGeometry>
        </mxCell>
        <mxCell id="LjYqNugDr9bcPcMIpJbj-90" value="σ" style="rounded=0;whiteSpace=wrap;html=1;fontSize=10;fillColor=#ffe6cc;strokeColor=#d79b00;" vertex="1" parent="LjYqNugDr9bcPcMIpJbj-66">
          <mxGeometry x="150" y="170" width="30" height="10" as="geometry" />
        </mxCell>
        <mxCell id="LjYqNugDr9bcPcMIpJbj-91" style="edgeStyle=orthogonalEdgeStyle;rounded=1;orthogonalLoop=1;jettySize=auto;html=1;exitX=0.5;exitY=0;exitDx=0;exitDy=0;entryX=0.5;entryY=1;entryDx=0;entryDy=0;curved=0;" edge="1" parent="LjYqNugDr9bcPcMIpJbj-66" source="LjYqNugDr9bcPcMIpJbj-92" target="LjYqNugDr9bcPcMIpJbj-80">
          <mxGeometry relative="1" as="geometry">
            <Array as="points">
              <mxPoint x="20" y="200" />
              <mxPoint x="38" y="200" />
            </Array>
          </mxGeometry>
        </mxCell>
        <mxCell id="LjYqNugDr9bcPcMIpJbj-92" value="X1" style="ellipse;whiteSpace=wrap;html=1;aspect=fixed;fontSize=9;fillColor=#f8cecc;strokeColor=#b85450;" vertex="1" parent="LjYqNugDr9bcPcMIpJbj-66">
          <mxGeometry x="10" y="240" width="20" height="20" as="geometry" />
        </mxCell>
        <mxCell id="LjYqNugDr9bcPcMIpJbj-93" style="edgeStyle=orthogonalEdgeStyle;rounded=0;orthogonalLoop=1;jettySize=auto;html=1;exitX=0.5;exitY=1;exitDx=0;exitDy=0;endArrow=none;endFill=0;startArrow=classic;startFill=1;" edge="1" parent="LjYqNugDr9bcPcMIpJbj-66" source="LjYqNugDr9bcPcMIpJbj-94">
          <mxGeometry relative="1" as="geometry">
            <mxPoint x="229.9411764705883" y="200" as="targetPoint" />
          </mxGeometry>
        </mxCell>
        <mxCell id="LjYqNugDr9bcPcMIpJbj-94" value="ht" style="ellipse;whiteSpace=wrap;html=1;aspect=fixed;fontSize=10;fillColor=#e1d5e7;strokeColor=#9673a6;" vertex="1" parent="LjYqNugDr9bcPcMIpJbj-66">
          <mxGeometry x="220" width="20" height="20" as="geometry" />
        </mxCell>
        <mxCell id="LjYqNugDr9bcPcMIpJbj-65" value="" style="group" vertex="1" connectable="0" parent="LjYqNugDr9bcPcMIpJbj-135">
          <mxGeometry width="265" height="260" as="geometry" />
        </mxCell>
        <mxCell id="LjYqNugDr9bcPcMIpJbj-8" value="×" style="ellipse;whiteSpace=wrap;html=1;aspect=fixed;fillColor=#dae8fc;strokeColor=#6c8ebf;" vertex="1" parent="LjYqNugDr9bcPcMIpJbj-65">
          <mxGeometry x="117.5" y="125" width="15" height="15" as="geometry" />
        </mxCell>
        <mxCell id="LjYqNugDr9bcPcMIpJbj-44" style="edgeStyle=orthogonalEdgeStyle;rounded=0;orthogonalLoop=1;jettySize=auto;html=1;exitX=1;exitY=0.5;exitDx=0;exitDy=0;endArrow=none;endFill=0;" edge="1" parent="LjYqNugDr9bcPcMIpJbj-65" source="LjYqNugDr9bcPcMIpJbj-9">
          <mxGeometry relative="1" as="geometry">
            <mxPoint x="210" y="80.17647058823536" as="targetPoint" />
          </mxGeometry>
        </mxCell>
        <mxCell id="LjYqNugDr9bcPcMIpJbj-9" value="+" style="ellipse;whiteSpace=wrap;html=1;aspect=fixed;fillColor=#dae8fc;strokeColor=#6c8ebf;" vertex="1" parent="LjYqNugDr9bcPcMIpJbj-65">
          <mxGeometry x="117.5" y="72.5" width="15" height="15" as="geometry" />
        </mxCell>
        <mxCell id="LjYqNugDr9bcPcMIpJbj-33" style="edgeStyle=orthogonalEdgeStyle;rounded=0;orthogonalLoop=1;jettySize=auto;html=1;exitX=0.5;exitY=0;exitDx=0;exitDy=0;entryX=0.5;entryY=1;entryDx=0;entryDy=0;" edge="1" parent="LjYqNugDr9bcPcMIpJbj-65" source="LjYqNugDr9bcPcMIpJbj-8" target="LjYqNugDr9bcPcMIpJbj-9">
          <mxGeometry relative="1" as="geometry" />
        </mxCell>
        <mxCell id="LjYqNugDr9bcPcMIpJbj-28" style="edgeStyle=orthogonalEdgeStyle;rounded=0;orthogonalLoop=1;jettySize=auto;html=1;exitX=1;exitY=0.5;exitDx=0;exitDy=0;entryX=0;entryY=0.5;entryDx=0;entryDy=0;endArrow=none;endFill=0;" edge="1" parent="LjYqNugDr9bcPcMIpJbj-65" source="LjYqNugDr9bcPcMIpJbj-10" target="LjYqNugDr9bcPcMIpJbj-9">
          <mxGeometry relative="1" as="geometry" />
        </mxCell>
        <mxCell id="LjYqNugDr9bcPcMIpJbj-97" style="edgeStyle=orthogonalEdgeStyle;rounded=0;orthogonalLoop=1;jettySize=auto;html=1;exitX=0;exitY=0.5;exitDx=0;exitDy=0;endArrow=none;endFill=0;" edge="1" parent="LjYqNugDr9bcPcMIpJbj-65" source="LjYqNugDr9bcPcMIpJbj-10">
          <mxGeometry relative="1" as="geometry">
            <mxPoint x="4" y="80" as="targetPoint" />
          </mxGeometry>
        </mxCell>
        <mxCell id="LjYqNugDr9bcPcMIpJbj-10" value="×" style="ellipse;whiteSpace=wrap;html=1;aspect=fixed;fillColor=#dae8fc;strokeColor=#6c8ebf;" vertex="1" parent="LjYqNugDr9bcPcMIpJbj-65">
          <mxGeometry x="30" y="72.5" width="15" height="15" as="geometry" />
        </mxCell>
        <mxCell id="LjYqNugDr9bcPcMIpJbj-60" style="edgeStyle=orthogonalEdgeStyle;rounded=1;orthogonalLoop=1;jettySize=auto;html=1;exitX=0.5;exitY=1;exitDx=0;exitDy=0;curved=0;" edge="1" parent="LjYqNugDr9bcPcMIpJbj-65" source="LjYqNugDr9bcPcMIpJbj-12">
          <mxGeometry relative="1" as="geometry">
            <mxPoint x="270" y="200" as="targetPoint" />
            <Array as="points">
              <mxPoint x="205" y="200" />
            </Array>
          </mxGeometry>
        </mxCell>
        <mxCell id="LjYqNugDr9bcPcMIpJbj-12" value="×" style="ellipse;whiteSpace=wrap;html=1;aspect=fixed;fillColor=#dae8fc;strokeColor=#6c8ebf;" vertex="1" parent="LjYqNugDr9bcPcMIpJbj-65">
          <mxGeometry x="197.5" y="125" width="15" height="15" as="geometry" />
        </mxCell>
        <mxCell id="LjYqNugDr9bcPcMIpJbj-43" style="edgeStyle=orthogonalEdgeStyle;rounded=0;orthogonalLoop=1;jettySize=auto;html=1;exitX=0.5;exitY=0;exitDx=0;exitDy=0;" edge="1" parent="LjYqNugDr9bcPcMIpJbj-65" source="LjYqNugDr9bcPcMIpJbj-15">
          <mxGeometry relative="1" as="geometry">
            <mxPoint x="270" y="80" as="targetPoint" />
            <Array as="points">
              <mxPoint x="205" y="80" />
            </Array>
          </mxGeometry>
        </mxCell>
        <mxCell id="LjYqNugDr9bcPcMIpJbj-15" value="tanh" style="ellipse;whiteSpace=wrap;html=1;fontSize=10;fillColor=#dae8fc;strokeColor=#6c8ebf;" vertex="1" parent="LjYqNugDr9bcPcMIpJbj-65">
          <mxGeometry x="190" y="102.5" width="30" height="15" as="geometry" />
        </mxCell>
        <mxCell id="LjYqNugDr9bcPcMIpJbj-45" style="edgeStyle=orthogonalEdgeStyle;rounded=0;orthogonalLoop=1;jettySize=auto;html=1;exitX=0.5;exitY=0;exitDx=0;exitDy=0;entryX=0.5;entryY=1;entryDx=0;entryDy=0;endArrow=none;endFill=0;" edge="1" parent="LjYqNugDr9bcPcMIpJbj-65" source="LjYqNugDr9bcPcMIpJbj-12" target="LjYqNugDr9bcPcMIpJbj-15">
          <mxGeometry relative="1" as="geometry" />
        </mxCell>
        <mxCell id="LjYqNugDr9bcPcMIpJbj-31" style="edgeStyle=orthogonalEdgeStyle;rounded=0;orthogonalLoop=1;jettySize=auto;html=1;exitX=0.5;exitY=0;exitDx=0;exitDy=0;entryX=0.5;entryY=1;entryDx=0;entryDy=0;" edge="1" parent="LjYqNugDr9bcPcMIpJbj-65" source="LjYqNugDr9bcPcMIpJbj-17" target="LjYqNugDr9bcPcMIpJbj-10">
          <mxGeometry relative="1" as="geometry" />
        </mxCell>
        <mxCell id="LjYqNugDr9bcPcMIpJbj-17" value="σ" style="rounded=0;whiteSpace=wrap;html=1;fontSize=10;fillColor=#ffe6cc;strokeColor=#d79b00;" vertex="1" parent="LjYqNugDr9bcPcMIpJbj-65">
          <mxGeometry x="22.5" y="170" width="30" height="10" as="geometry" />
        </mxCell>
        <mxCell id="LjYqNugDr9bcPcMIpJbj-34" style="edgeStyle=orthogonalEdgeStyle;rounded=0;orthogonalLoop=1;jettySize=auto;html=1;exitX=0.5;exitY=0;exitDx=0;exitDy=0;entryX=0.5;entryY=1;entryDx=0;entryDy=0;" edge="1" parent="LjYqNugDr9bcPcMIpJbj-65" source="LjYqNugDr9bcPcMIpJbj-18" target="LjYqNugDr9bcPcMIpJbj-8">
          <mxGeometry relative="1" as="geometry" />
        </mxCell>
        <mxCell id="LjYqNugDr9bcPcMIpJbj-56" style="edgeStyle=orthogonalEdgeStyle;rounded=0;orthogonalLoop=1;jettySize=auto;html=1;exitX=0.5;exitY=1;exitDx=0;exitDy=0;endArrow=none;endFill=0;" edge="1" parent="LjYqNugDr9bcPcMIpJbj-65" source="LjYqNugDr9bcPcMIpJbj-18">
          <mxGeometry relative="1" as="geometry">
            <mxPoint x="125.23529411764707" y="200" as="targetPoint" />
          </mxGeometry>
        </mxCell>
        <mxCell id="LjYqNugDr9bcPcMIpJbj-59" style="edgeStyle=orthogonalEdgeStyle;rounded=0;orthogonalLoop=1;jettySize=auto;html=1;exitX=0.5;exitY=1;exitDx=0;exitDy=0;endArrow=none;endFill=0;" edge="1" parent="LjYqNugDr9bcPcMIpJbj-65" source="LjYqNugDr9bcPcMIpJbj-18">
          <mxGeometry relative="1" as="geometry">
            <mxPoint x="4" y="200" as="targetPoint" />
            <Array as="points">
              <mxPoint x="125" y="200" />
            </Array>
          </mxGeometry>
        </mxCell>
        <mxCell id="LjYqNugDr9bcPcMIpJbj-18" value="tanh" style="rounded=0;whiteSpace=wrap;html=1;fontSize=9;fillColor=#ffe6cc;strokeColor=#d79b00;" vertex="1" parent="LjYqNugDr9bcPcMIpJbj-65">
          <mxGeometry x="110" y="170" width="30" height="10" as="geometry" />
        </mxCell>
        <mxCell id="LjYqNugDr9bcPcMIpJbj-32" style="edgeStyle=orthogonalEdgeStyle;rounded=1;orthogonalLoop=1;jettySize=auto;html=1;exitX=0.5;exitY=0;exitDx=0;exitDy=0;entryX=0;entryY=0.5;entryDx=0;entryDy=0;curved=0;" edge="1" parent="LjYqNugDr9bcPcMIpJbj-65" source="LjYqNugDr9bcPcMIpJbj-19" target="LjYqNugDr9bcPcMIpJbj-8">
          <mxGeometry relative="1" as="geometry" />
        </mxCell>
        <mxCell id="LjYqNugDr9bcPcMIpJbj-54" style="edgeStyle=orthogonalEdgeStyle;rounded=0;orthogonalLoop=1;jettySize=auto;html=1;exitX=0.5;exitY=1;exitDx=0;exitDy=0;endArrow=none;endFill=0;" edge="1" parent="LjYqNugDr9bcPcMIpJbj-65" source="LjYqNugDr9bcPcMIpJbj-19">
          <mxGeometry relative="1" as="geometry">
            <mxPoint x="85.23529411764707" y="200" as="targetPoint" />
          </mxGeometry>
        </mxCell>
        <mxCell id="LjYqNugDr9bcPcMIpJbj-19" value="σ" style="rounded=0;whiteSpace=wrap;html=1;fontSize=10;fillColor=#ffe6cc;strokeColor=#d79b00;" vertex="1" parent="LjYqNugDr9bcPcMIpJbj-65">
          <mxGeometry x="70" y="170" width="30" height="10" as="geometry" />
        </mxCell>
        <mxCell id="LjYqNugDr9bcPcMIpJbj-35" style="edgeStyle=orthogonalEdgeStyle;rounded=1;orthogonalLoop=1;jettySize=auto;html=1;exitX=0.5;exitY=0;exitDx=0;exitDy=0;entryX=0;entryY=0.5;entryDx=0;entryDy=0;curved=0;" edge="1" parent="LjYqNugDr9bcPcMIpJbj-65" source="LjYqNugDr9bcPcMIpJbj-23" target="LjYqNugDr9bcPcMIpJbj-12">
          <mxGeometry relative="1" as="geometry" />
        </mxCell>
        <mxCell id="LjYqNugDr9bcPcMIpJbj-58" style="edgeStyle=orthogonalEdgeStyle;rounded=1;orthogonalLoop=1;jettySize=auto;html=1;exitX=0.5;exitY=1;exitDx=0;exitDy=0;curved=0;endArrow=none;endFill=0;" edge="1" parent="LjYqNugDr9bcPcMIpJbj-65" source="LjYqNugDr9bcPcMIpJbj-23">
          <mxGeometry relative="1" as="geometry">
            <mxPoint x="90" y="200" as="targetPoint" />
            <Array as="points">
              <mxPoint x="165" y="200" />
            </Array>
          </mxGeometry>
        </mxCell>
        <mxCell id="LjYqNugDr9bcPcMIpJbj-23" value="σ" style="rounded=0;whiteSpace=wrap;html=1;fontSize=10;fillColor=#ffe6cc;strokeColor=#d79b00;" vertex="1" parent="LjYqNugDr9bcPcMIpJbj-65">
          <mxGeometry x="150" y="170" width="30" height="10" as="geometry" />
        </mxCell>
        <mxCell id="LjYqNugDr9bcPcMIpJbj-51" style="edgeStyle=orthogonalEdgeStyle;rounded=1;orthogonalLoop=1;jettySize=auto;html=1;exitX=0.5;exitY=0;exitDx=0;exitDy=0;entryX=0.5;entryY=1;entryDx=0;entryDy=0;curved=0;" edge="1" parent="LjYqNugDr9bcPcMIpJbj-65" source="LjYqNugDr9bcPcMIpJbj-50" target="LjYqNugDr9bcPcMIpJbj-17">
          <mxGeometry relative="1" as="geometry">
            <Array as="points">
              <mxPoint x="20" y="200" />
              <mxPoint x="38" y="200" />
            </Array>
          </mxGeometry>
        </mxCell>
        <mxCell id="LjYqNugDr9bcPcMIpJbj-50" value="&lt;font style=&quot;font-size: 9px;&quot;&gt;Xt-1&lt;/font&gt;" style="ellipse;whiteSpace=wrap;html=1;aspect=fixed;fontSize=10;fillColor=#f8cecc;strokeColor=#b85450;" vertex="1" parent="LjYqNugDr9bcPcMIpJbj-65">
          <mxGeometry x="10" y="240" width="20" height="20" as="geometry" />
        </mxCell>
        <mxCell id="LjYqNugDr9bcPcMIpJbj-64" style="edgeStyle=orthogonalEdgeStyle;rounded=0;orthogonalLoop=1;jettySize=auto;html=1;exitX=0.5;exitY=1;exitDx=0;exitDy=0;endArrow=none;endFill=0;startArrow=classic;startFill=1;" edge="1" parent="LjYqNugDr9bcPcMIpJbj-65" source="LjYqNugDr9bcPcMIpJbj-63">
          <mxGeometry relative="1" as="geometry">
            <mxPoint x="229.9411764705883" y="200" as="targetPoint" />
          </mxGeometry>
        </mxCell>
        <mxCell id="LjYqNugDr9bcPcMIpJbj-63" value="ht-1" style="ellipse;whiteSpace=wrap;html=1;aspect=fixed;fontSize=10;fillColor=#e1d5e7;strokeColor=#9673a6;" vertex="1" parent="LjYqNugDr9bcPcMIpJbj-65">
          <mxGeometry x="220" width="20" height="20" as="geometry" />
        </mxCell>
        <mxCell id="LjYqNugDr9bcPcMIpJbj-5" value="" style="rounded=1;whiteSpace=wrap;html=1;fillColor=#fff2cc;strokeColor=#d6b656;opacity=90;" vertex="1" parent="LjYqNugDr9bcPcMIpJbj-65">
          <mxGeometry y="60" width="250" height="160" as="geometry" />
        </mxCell>
        <mxCell id="LjYqNugDr9bcPcMIpJbj-99" value="" style="rounded=0;whiteSpace=wrap;html=1;fillColor=#d5e8d4;strokeColor=#82b366;fillStyle=solid;opacity=50;" vertex="1" parent="LjYqNugDr9bcPcMIpJbj-65">
          <mxGeometry x="-9.5" y="51.25" width="269" height="177.5" as="geometry" />
        </mxCell>
        <mxCell id="LjYqNugDr9bcPcMIpJbj-102" value="" style="group" vertex="1" connectable="0" parent="LjYqNugDr9bcPcMIpJbj-135">
          <mxGeometry x="554" width="265" height="260" as="geometry" />
        </mxCell>
        <mxCell id="LjYqNugDr9bcPcMIpJbj-103" value="×" style="ellipse;whiteSpace=wrap;html=1;aspect=fixed;fillColor=#dae8fc;strokeColor=#6c8ebf;" vertex="1" parent="LjYqNugDr9bcPcMIpJbj-102">
          <mxGeometry x="117.5" y="125" width="15" height="15" as="geometry" />
        </mxCell>
        <mxCell id="LjYqNugDr9bcPcMIpJbj-104" style="edgeStyle=orthogonalEdgeStyle;rounded=0;orthogonalLoop=1;jettySize=auto;html=1;exitX=1;exitY=0.5;exitDx=0;exitDy=0;endArrow=none;endFill=0;" edge="1" parent="LjYqNugDr9bcPcMIpJbj-102" source="LjYqNugDr9bcPcMIpJbj-105">
          <mxGeometry relative="1" as="geometry">
            <mxPoint x="210" y="80.17647058823536" as="targetPoint" />
          </mxGeometry>
        </mxCell>
        <mxCell id="LjYqNugDr9bcPcMIpJbj-105" value="+" style="ellipse;whiteSpace=wrap;html=1;aspect=fixed;fillColor=#dae8fc;strokeColor=#6c8ebf;" vertex="1" parent="LjYqNugDr9bcPcMIpJbj-102">
          <mxGeometry x="117.5" y="72.5" width="15" height="15" as="geometry" />
        </mxCell>
        <mxCell id="LjYqNugDr9bcPcMIpJbj-106" style="edgeStyle=orthogonalEdgeStyle;rounded=0;orthogonalLoop=1;jettySize=auto;html=1;exitX=0.5;exitY=0;exitDx=0;exitDy=0;entryX=0.5;entryY=1;entryDx=0;entryDy=0;" edge="1" parent="LjYqNugDr9bcPcMIpJbj-102" source="LjYqNugDr9bcPcMIpJbj-103" target="LjYqNugDr9bcPcMIpJbj-105">
          <mxGeometry relative="1" as="geometry" />
        </mxCell>
        <mxCell id="LjYqNugDr9bcPcMIpJbj-107" style="edgeStyle=orthogonalEdgeStyle;rounded=0;orthogonalLoop=1;jettySize=auto;html=1;exitX=1;exitY=0.5;exitDx=0;exitDy=0;entryX=0;entryY=0.5;entryDx=0;entryDy=0;endArrow=none;endFill=0;" edge="1" parent="LjYqNugDr9bcPcMIpJbj-102" source="LjYqNugDr9bcPcMIpJbj-109" target="LjYqNugDr9bcPcMIpJbj-105">
          <mxGeometry relative="1" as="geometry" />
        </mxCell>
        <mxCell id="LjYqNugDr9bcPcMIpJbj-108" style="edgeStyle=orthogonalEdgeStyle;rounded=0;orthogonalLoop=1;jettySize=auto;html=1;exitX=0;exitY=0.5;exitDx=0;exitDy=0;endArrow=none;endFill=0;" edge="1" parent="LjYqNugDr9bcPcMIpJbj-102" source="LjYqNugDr9bcPcMIpJbj-109">
          <mxGeometry relative="1" as="geometry">
            <mxPoint x="4" y="80" as="targetPoint" />
          </mxGeometry>
        </mxCell>
        <mxCell id="LjYqNugDr9bcPcMIpJbj-109" value="×" style="ellipse;whiteSpace=wrap;html=1;aspect=fixed;fillColor=#dae8fc;strokeColor=#6c8ebf;" vertex="1" parent="LjYqNugDr9bcPcMIpJbj-102">
          <mxGeometry x="30" y="72.5" width="15" height="15" as="geometry" />
        </mxCell>
        <mxCell id="LjYqNugDr9bcPcMIpJbj-110" style="edgeStyle=orthogonalEdgeStyle;rounded=1;orthogonalLoop=1;jettySize=auto;html=1;exitX=0.5;exitY=1;exitDx=0;exitDy=0;curved=0;" edge="1" parent="LjYqNugDr9bcPcMIpJbj-102" source="LjYqNugDr9bcPcMIpJbj-111">
          <mxGeometry relative="1" as="geometry">
            <mxPoint x="270" y="200" as="targetPoint" />
            <Array as="points">
              <mxPoint x="205" y="200" />
            </Array>
          </mxGeometry>
        </mxCell>
        <mxCell id="LjYqNugDr9bcPcMIpJbj-111" value="×" style="ellipse;whiteSpace=wrap;html=1;aspect=fixed;fillColor=#dae8fc;strokeColor=#6c8ebf;" vertex="1" parent="LjYqNugDr9bcPcMIpJbj-102">
          <mxGeometry x="197.5" y="125" width="15" height="15" as="geometry" />
        </mxCell>
        <mxCell id="LjYqNugDr9bcPcMIpJbj-112" style="edgeStyle=orthogonalEdgeStyle;rounded=0;orthogonalLoop=1;jettySize=auto;html=1;exitX=0.5;exitY=0;exitDx=0;exitDy=0;" edge="1" parent="LjYqNugDr9bcPcMIpJbj-102" source="LjYqNugDr9bcPcMIpJbj-113">
          <mxGeometry relative="1" as="geometry">
            <mxPoint x="270" y="80" as="targetPoint" />
            <Array as="points">
              <mxPoint x="205" y="80" />
            </Array>
          </mxGeometry>
        </mxCell>
        <mxCell id="LjYqNugDr9bcPcMIpJbj-113" value="tanh" style="ellipse;whiteSpace=wrap;html=1;fontSize=10;fillColor=#dae8fc;strokeColor=#6c8ebf;" vertex="1" parent="LjYqNugDr9bcPcMIpJbj-102">
          <mxGeometry x="190" y="102.5" width="30" height="15" as="geometry" />
        </mxCell>
        <mxCell id="LjYqNugDr9bcPcMIpJbj-114" style="edgeStyle=orthogonalEdgeStyle;rounded=0;orthogonalLoop=1;jettySize=auto;html=1;exitX=0.5;exitY=0;exitDx=0;exitDy=0;entryX=0.5;entryY=1;entryDx=0;entryDy=0;endArrow=none;endFill=0;" edge="1" parent="LjYqNugDr9bcPcMIpJbj-102" source="LjYqNugDr9bcPcMIpJbj-111" target="LjYqNugDr9bcPcMIpJbj-113">
          <mxGeometry relative="1" as="geometry" />
        </mxCell>
        <mxCell id="LjYqNugDr9bcPcMIpJbj-115" style="edgeStyle=orthogonalEdgeStyle;rounded=0;orthogonalLoop=1;jettySize=auto;html=1;exitX=0.5;exitY=0;exitDx=0;exitDy=0;entryX=0.5;entryY=1;entryDx=0;entryDy=0;" edge="1" parent="LjYqNugDr9bcPcMIpJbj-102" source="LjYqNugDr9bcPcMIpJbj-116" target="LjYqNugDr9bcPcMIpJbj-109">
          <mxGeometry relative="1" as="geometry" />
        </mxCell>
        <mxCell id="LjYqNugDr9bcPcMIpJbj-116" value="σ" style="rounded=0;whiteSpace=wrap;html=1;fontSize=10;fillColor=#ffe6cc;strokeColor=#d79b00;" vertex="1" parent="LjYqNugDr9bcPcMIpJbj-102">
          <mxGeometry x="22.5" y="170" width="30" height="10" as="geometry" />
        </mxCell>
        <mxCell id="LjYqNugDr9bcPcMIpJbj-117" style="edgeStyle=orthogonalEdgeStyle;rounded=0;orthogonalLoop=1;jettySize=auto;html=1;exitX=0.5;exitY=0;exitDx=0;exitDy=0;entryX=0.5;entryY=1;entryDx=0;entryDy=0;" edge="1" parent="LjYqNugDr9bcPcMIpJbj-102" source="LjYqNugDr9bcPcMIpJbj-120" target="LjYqNugDr9bcPcMIpJbj-103">
          <mxGeometry relative="1" as="geometry" />
        </mxCell>
        <mxCell id="LjYqNugDr9bcPcMIpJbj-118" style="edgeStyle=orthogonalEdgeStyle;rounded=0;orthogonalLoop=1;jettySize=auto;html=1;exitX=0.5;exitY=1;exitDx=0;exitDy=0;endArrow=none;endFill=0;" edge="1" parent="LjYqNugDr9bcPcMIpJbj-102" source="LjYqNugDr9bcPcMIpJbj-120">
          <mxGeometry relative="1" as="geometry">
            <mxPoint x="125.23529411764707" y="200" as="targetPoint" />
          </mxGeometry>
        </mxCell>
        <mxCell id="LjYqNugDr9bcPcMIpJbj-119" style="edgeStyle=orthogonalEdgeStyle;rounded=0;orthogonalLoop=1;jettySize=auto;html=1;exitX=0.5;exitY=1;exitDx=0;exitDy=0;endArrow=none;endFill=0;" edge="1" parent="LjYqNugDr9bcPcMIpJbj-102" source="LjYqNugDr9bcPcMIpJbj-120">
          <mxGeometry relative="1" as="geometry">
            <mxPoint x="4" y="200" as="targetPoint" />
            <Array as="points">
              <mxPoint x="125" y="200" />
            </Array>
          </mxGeometry>
        </mxCell>
        <mxCell id="LjYqNugDr9bcPcMIpJbj-120" value="tanh" style="rounded=0;whiteSpace=wrap;html=1;fontSize=9;fillColor=#ffe6cc;strokeColor=#d79b00;" vertex="1" parent="LjYqNugDr9bcPcMIpJbj-102">
          <mxGeometry x="110" y="170" width="30" height="10" as="geometry" />
        </mxCell>
        <mxCell id="LjYqNugDr9bcPcMIpJbj-121" style="edgeStyle=orthogonalEdgeStyle;rounded=1;orthogonalLoop=1;jettySize=auto;html=1;exitX=0.5;exitY=0;exitDx=0;exitDy=0;entryX=0;entryY=0.5;entryDx=0;entryDy=0;curved=0;" edge="1" parent="LjYqNugDr9bcPcMIpJbj-102" source="LjYqNugDr9bcPcMIpJbj-123" target="LjYqNugDr9bcPcMIpJbj-103">
          <mxGeometry relative="1" as="geometry" />
        </mxCell>
        <mxCell id="LjYqNugDr9bcPcMIpJbj-122" style="edgeStyle=orthogonalEdgeStyle;rounded=0;orthogonalLoop=1;jettySize=auto;html=1;exitX=0.5;exitY=1;exitDx=0;exitDy=0;endArrow=none;endFill=0;" edge="1" parent="LjYqNugDr9bcPcMIpJbj-102" source="LjYqNugDr9bcPcMIpJbj-123">
          <mxGeometry relative="1" as="geometry">
            <mxPoint x="85.23529411764707" y="200" as="targetPoint" />
          </mxGeometry>
        </mxCell>
        <mxCell id="LjYqNugDr9bcPcMIpJbj-123" value="σ" style="rounded=0;whiteSpace=wrap;html=1;fontSize=10;fillColor=#ffe6cc;strokeColor=#d79b00;" vertex="1" parent="LjYqNugDr9bcPcMIpJbj-102">
          <mxGeometry x="70" y="170" width="30" height="10" as="geometry" />
        </mxCell>
        <mxCell id="LjYqNugDr9bcPcMIpJbj-124" style="edgeStyle=orthogonalEdgeStyle;rounded=1;orthogonalLoop=1;jettySize=auto;html=1;exitX=0.5;exitY=0;exitDx=0;exitDy=0;entryX=0;entryY=0.5;entryDx=0;entryDy=0;curved=0;" edge="1" parent="LjYqNugDr9bcPcMIpJbj-102" source="LjYqNugDr9bcPcMIpJbj-126" target="LjYqNugDr9bcPcMIpJbj-111">
          <mxGeometry relative="1" as="geometry" />
        </mxCell>
        <mxCell id="LjYqNugDr9bcPcMIpJbj-125" style="edgeStyle=orthogonalEdgeStyle;rounded=1;orthogonalLoop=1;jettySize=auto;html=1;exitX=0.5;exitY=1;exitDx=0;exitDy=0;curved=0;endArrow=none;endFill=0;" edge="1" parent="LjYqNugDr9bcPcMIpJbj-102" source="LjYqNugDr9bcPcMIpJbj-126">
          <mxGeometry relative="1" as="geometry">
            <mxPoint x="90" y="200" as="targetPoint" />
            <Array as="points">
              <mxPoint x="165" y="200" />
            </Array>
          </mxGeometry>
        </mxCell>
        <mxCell id="LjYqNugDr9bcPcMIpJbj-126" value="σ" style="rounded=0;whiteSpace=wrap;html=1;fontSize=10;fillColor=#ffe6cc;strokeColor=#d79b00;" vertex="1" parent="LjYqNugDr9bcPcMIpJbj-102">
          <mxGeometry x="150" y="170" width="30" height="10" as="geometry" />
        </mxCell>
        <mxCell id="LjYqNugDr9bcPcMIpJbj-127" style="edgeStyle=orthogonalEdgeStyle;rounded=1;orthogonalLoop=1;jettySize=auto;html=1;exitX=0.5;exitY=0;exitDx=0;exitDy=0;entryX=0.5;entryY=1;entryDx=0;entryDy=0;curved=0;" edge="1" parent="LjYqNugDr9bcPcMIpJbj-102" source="LjYqNugDr9bcPcMIpJbj-128" target="LjYqNugDr9bcPcMIpJbj-116">
          <mxGeometry relative="1" as="geometry">
            <Array as="points">
              <mxPoint x="20" y="200" />
              <mxPoint x="38" y="200" />
            </Array>
          </mxGeometry>
        </mxCell>
        <mxCell id="LjYqNugDr9bcPcMIpJbj-128" value="&lt;font style=&quot;font-size: 9px;&quot;&gt;Xt+1&lt;/font&gt;" style="ellipse;whiteSpace=wrap;html=1;aspect=fixed;fontSize=10;fillColor=#f8cecc;strokeColor=#b85450;" vertex="1" parent="LjYqNugDr9bcPcMIpJbj-102">
          <mxGeometry x="10" y="240" width="20" height="20" as="geometry" />
        </mxCell>
        <mxCell id="LjYqNugDr9bcPcMIpJbj-129" style="edgeStyle=orthogonalEdgeStyle;rounded=0;orthogonalLoop=1;jettySize=auto;html=1;exitX=0.5;exitY=1;exitDx=0;exitDy=0;endArrow=none;endFill=0;startArrow=classic;startFill=1;" edge="1" parent="LjYqNugDr9bcPcMIpJbj-102" source="LjYqNugDr9bcPcMIpJbj-130">
          <mxGeometry relative="1" as="geometry">
            <mxPoint x="229.9411764705883" y="200" as="targetPoint" />
          </mxGeometry>
        </mxCell>
        <mxCell id="LjYqNugDr9bcPcMIpJbj-130" value="ht+1" style="ellipse;whiteSpace=wrap;html=1;aspect=fixed;fontSize=10;fillColor=#e1d5e7;strokeColor=#9673a6;" vertex="1" parent="LjYqNugDr9bcPcMIpJbj-102">
          <mxGeometry x="220" width="20" height="20" as="geometry" />
        </mxCell>
        <mxCell id="LjYqNugDr9bcPcMIpJbj-131" value="" style="rounded=1;whiteSpace=wrap;html=1;fillColor=#fff2cc;strokeColor=#d6b656;opacity=90;" vertex="1" parent="LjYqNugDr9bcPcMIpJbj-102">
          <mxGeometry y="60" width="250" height="160" as="geometry" />
        </mxCell>
      </root>
    </mxGraphModel>
  </diagram>
</mxfile>
